# xmcd CD database file generated by Grip 3.0.4
# 
# Track frame offsets:
#       150
#       21605
#       43352
#       60655
#       83845
#       102452
#       132337
#       151482
#       181530
#       209975
#       239597
# 
# Disc length: 3460 seconds
# 
# Revision: 2
# Processed by: cddbd v1.5PL3 Copyright (c) Steve Scherf et al.
# Submitted via: Grip 3.0.4
# 
DISCID=a40d820b
DTITLE=Mono - Formica Blues
DYEAR=1997
DGENRE=Electronic
TTITLE0=Life in Mono
TTITLE1=Silicone
TTITLE2=Slimcea Girl
TTITLE3=The Outsider
TTITLE4=Disney Town
TTITLE5=The Blind Man
TTITLE6=High Life
TTITLE7=Playboys
TTITLE8=Penguin Freud
TTITLE9=Hello Cleveland!
TTITLE10=Life in Mono (Alice Band Mix)
EXTD=
EXTT0=
EXTT1=
EXTT2=
EXTT3=
EXTT4=
EXTT5=
EXTT6=
EXTT7=
EXTT8=
EXTT9=
EXTT10=
PLAYORDER=
